#!OML:ASF E:\Mandelcareful walks\Project 1\Capture day 1\Session 1\Subject1.ASF
:FULLY-SPECIFIED
:DEGREES
436
root -12.4474 14.7627 -0.45186 -180.484 78.7483 161.473
lowerback 18.8854 7.54392 -6.39195
upperback 7.59565 9.22876 -4.14589
thorax -2.47183 4.79546 -2.77752
lowerneck -19.6292 16.6545 9.78846
upperneck 7.55286 22.8941 -17.9623
head 8.83238 9.98819 -3.88017
rclavicle -8.5875e-014 2.46493e-014
rhumerus -39.2937 22.559 -89.6495
rradius 62.3957
rwrist -7.42838
rhand -22.946 -27.3909
rfingers 7.12502
rthumb 3.4952 -57.342
lclavicle -8.5875e-014 2.46493e-014
lhumerus -31.2967 -63.4931 83.6206
lradius 88.2444
lwrist 5.91819
lhand -26.7586 -15.7307
lfingers 7.12502
lthumb -0.186964 14.2489
rfemur -35.9852 -22.9036 -3.67407
rtibia 57.5141
rfoot -15.8195 -9.47622
rtoes -23.2527
lfemur -52.0656 4.9742 -22.1013
ltibia 68.5683
lfoot -30.3411 7.69705
ltoes -6.45293
437
root -12.468 14.7746 -0.475994 -180.576 79.5 161.067
lowerback 18.6597 7.47671 -6.50246
upperback 7.54226 9.12473 -4.13602
thorax -2.43283 4.7349 -2.65875
lowerneck -19.4984 16.7907 9.71611
upperneck 7.40987 23.1462 -18.2407
head 8.83157 10.101 -3.91199
rclavicle 3.57812e-015 -1.31198e-014
rhumerus -39.1726 22.9461 -89.5675
rradius 62.9373
rwrist -7.52609
rhand -23.6505 -26.8134
rfingers 7.12502
rthumb 2.81491 -56.7745
lclavicle 3.57812e-015 -1.31198e-014
lhumerus -29.9492 -63.9963 82.6675
lradius 87.9779
lwrist 4.46353
lhand -27.1023 -16.0186
lfingers 7.12502
lthumb -0.518873 13.9605
rfemur -37.7909 -23.1867 -3.17572
rtibia 58.4098
rfoot -14.5698 -9.16973
rtoes -21.9808
lfemur -52.37 5.332 -22.1623
ltibia 68.3372
lfoot -30.0702 8.1174
ltoes -6.28988
438
root -12.4629 14.8152 -0.46641 -181.669 79.7004 160.428
lowerback 19.2768 7.31187 -6.97844
upperback 7.68087 8.79158 -3.9536
thorax -2.6865 4.56558 -2.21369
lowerneck -19.587 16.8802 9.84165
upperneck 7.51598 23.3236 -18.571
head 8.97349 10.1468 -3.9826
rclavicle -7.71285e-014 5.56597e-014
rhumerus -39.0258 23.4095 -89.5187
rradius 63.557
rwrist -7.87057
rhand -23.577 -26.5909
rfingers 7.12502
rthumb 2.88586 -56.5511
lclavicle -7.71285e-014 5.56597e-014
lhumerus -28.8776 -64.2009 81.7183
lradius 87.7021
lwrist 3.35407
lhand -27.2063 -16.3168
lfingers 7.12502
lthumb -0.619361 13.662
rfemur -38.1662 -23.4801 -2.91696
rtibia 59.0571
rfoot -13.8143 -9.38217
rtoes -22.2281
lfemur -51.4749 5.54016 -22.1339
ltibia 67.8578
lfoot -30.0084 8.08299
ltoes -6.46502
439
root -12.4706 14.8409 -0.473663 -182.961 80.1387 158.902
lowerback 19.2679 7.36495 -7.08706
upperback 7.45086 8.80152 -4.20236
thorax -2.90479 4.57132 -2.44022
lowerneck -19.3626 16.6719 10.7694
upperneck 7.90552 22.9051 -18.7289
head 9.14313 9.93938 -4.25236
rclavicle -5.00937e-014 -5.4467e-014
rhumerus -39.1563 22.4607 -89.6643
rradius 64.1521
rwrist -7.58486
rhand -23.1227 -26.322
rfingers 7.12502
rthumb 3.32463 -56.2759
lclavicle -5.00937e-014 -5.4467e-014
lhumerus -28.376 -65.5773 80.9365
lradius 87.5422
lwrist 3.13621
lhand -26.8706 -16.1982
lfingers 7.12502
lthumb -0.295141 13.7813
rfemur -39.6209 -23.9116 -2.50556
rtibia 59.5773
rfoot -12.9879 -9.59098
rtoes -23.2271
lfemur -51.5048 5.85229 -22.4205
ltibia 67.4283
lfoot -29.8659 8.20436
ltoes -6.77683
440
root -12.4634 14.8753 -0.487607 -184.93 81.0142 157.152
lowerback 19.3241 7.20671 -7.74552
upperback 7.59565 8.48713 -3.85398
thorax -2.91034 4.39582 -1.64553
lowerneck -19.6391 16.6347 9.65778
upperneck 8.17735 23.0793 -18.2882
head 9.10929 9.99129 -3.91345
rclavicle -1.10127e-013 4.23411e-014
rhumerus -38.7452 23.4864 -89.0104
rradius 64.6913
rwrist -7.45659
rhand -22.562 -25.9009
rfingers 7.12502
rthumb 3.8661 -55.8456
lclavicle -1.10127e-013 4.23411e-014
lhumerus -28.2659 -65.0176 81.0691
lradius 87.2783
lwrist 3.10973
lhand -26.8023 -16.1289
lfingers 7.12502
lthumb -0.229185 13.8507
rfemur -40.5951 -23.7638 -2.14755
rtibia 59.7386
rfoot -12.4857 -9.53662
rtoes -23.4954
lfemur -50.8641 6.577 -22.5958
ltibia 66.9671
lfoot -29.9091 8.32544
ltoes -6.81793
441
root -12.4458 14.9087 -0.491996 -186.721 81.5105 155.638
lowerback 19.5613 7.22954 -7.80409
upperback 7.67675 8.49183 -3.85392
thorax -2.94888 4.39988 -1.63941
lowerneck -20.1451 16.0049 9.37402
upperneck 8.93793 22.1832 -17.4225
head 9.16931 9.54793 -3.76102
rclavicle 2.5842e-015 6.75868e-015
rhumerus -38.6235 22.7815 -88.8367
rradius 65.2492
rwrist -7.53952
rhand -22.3875 -25.6288
rfingers 7.12502
rthumb 4.0346 -55.5703
lclavicle 2.5842e-015 6.75868e-015
lhumerus -27.3415 -66.1171 80.086
lradius 87.2539
lwrist 3.79743
lhand -26.6198 -15.5274
lfingers 7.12502
lthumb -0.052896 14.4523
rfemur -41.1679 -23.8639 -1.79616
rtibia 59.5916
rfoot -12.3389 -9.0654
rtoes -22.957
lfemur -50.1358 6.91588 -22.6554
ltibia 66.5885
lfoot -30.0421 8.38269
ltoes -6.47178
442
root -12.4726 14.915 -0.487617 -187.673 81.9325 154.173
lowerback 19.4229 7.04642 -7.75668
upperback 7.45601 8.23298 -3.93101
thorax -3.0955 4.26857 -1.68532
lowerneck -20.9604 15.229 8.82543
upperneck 9.98512 21.0919 -16.1532
head 9.28128 9.00917 -3.45922
rclavicle 3.95581e-014 -6.0033e-014
rhumerus -38.4109 22.4703 -88.7182
rradius 65.6783
rwrist -7.88956
rhand -22.0754 -25.5854
rfingers 7.12502
rthumb 4.33595 -55.521
lclavicle 3.95581e-014 -6.0033e-014
lhumerus -26.3768 -67.0195 79.0722
lradius 87.2086
lwrist 4.8704
lhand -26.3587 -14.4919
lfingers 7.12502
lthumb 0.199294 15.4878
rfemur -42.9372 -24.1805 -1.05883
rtibia 59.2232
rfoot -11.9741 -8.18515
rtoes -22.2683
lfemur -50.7074 7.08533 -22.8177
ltibia 66.2983
lfoot -29.7173 8.84289
ltoes -6.70852
443
root -12.4891 14.9251 -0.482656 -189.576 82.6062 151.915
lowerback 19.2752 6.87815 -7.85444
upperback 7.27888 7.97509 -3.97095
thorax -3.21235 4.13528 -1.61033
lowerneck -22.1086 14.1936 7.76131
upperneck 11.4094 19.659 -14.1429
head 9.41607 8.33222 -2.88576
rclavicle 4.21423e-014 -7.15625e-015
rhumerus -38.1811 21.9888 -88.6891
rradius 65.9877
rwrist -7.6625
rhand -20.9499 -25.3971
rfingers 7.12502
rthumb 5.4227 -55.3077
lclavicle 4.21423e-014 -7.15625e-015
lhumerus -25.478 -67.7123 78.0446
lradius 87.1845
lwrist 5.8485
lhand -26.8831 -14.5449
lfingers 7.12502
lthumb -0.307186 15.4346
rfemur -44.5646 -24.0167 -0.409491
rtibia 58.6852
rfoot -11.8565 -7.07666
rtoes -22.0729
lfemur -51.0442 7.56133 -22.9859
ltibia 66.0871
lfoot -29.543 9.31851
ltoes -7.00796
444
root -12.469 14.9657 -0.458445 -192.801 82.8029 149.23
lowerback 19.8792 6.57991 -8.35129
upperback 7.55601 7.48046 -3.70269
thorax -3.29108 3.88886 -0.990866
lowerneck -23.276 13.1478 6.1437
upperneck 12.3006 18.4093 -12.4931
head 9.43367 7.73829 -2.30358
rclavicle -6.0033e-014 8.56762e-014
rhumerus -37.4517 22.396 -88.0125
rradius 66.5208
rwrist -7.91258
rhand -19.7108 -25.2654
rfingers 7.12502
rthumb 6.61901 -55.1419
lclavicle -6.0033e-014 8.56762e-014
lhumerus -23.9573 -67.8098 76.6237
lradius 87.0995
lwrist 6.56366
lhand -27.8422 -15.4192
lfingers 7.12502
lthumb -1.23349 14.557
rfemur -44.5393 -23.6615 -0.355911
rtibia 57.8499
rfoot -12.1918 -6.20318
rtoes -21.4645
lfemur -49.9872 7.92196 -23.0796
ltibia 65.6679
lfoot -29.6422 9.30611
ltoes -7.24258
